<?xml version="1.0" encoding="UTF-8"?>
<svg width="256" height="256" viewBox="0 0 256 256" xmlns="http://www.w3.org/2000/svg" role="img" aria-labelledby="title desc">
  <title id="title">High Performant Icon</title>
  <desc id="desc">An icon showing a rocket taking off with speed lines, a performance chart in the background, symbolizing orders-of-magnitude advantage.</desc>

  <defs>
    <style>
      :root{
        --accent:#5b8cff;   /* speed lines */
        --boost:#ff7c4d;    /* rocket flame */
        --secure:#24c4a8;   /* chart growth bar */
        --ink:#0f172a;      /* strokes */
        --muted:#e6e8ef;    /* background grid */
      }
      .stroke-ink{stroke:var(--ink);}
      .fill-accent{fill:var(--accent);}
      .fill-boost{fill:var(--boost);}
      .fill-secure{fill:var(--secure);}
      .fill-muted{fill:var(--muted);}
    </style>
    <filter id="s" x="-20%" y="-20%" width="140%" height="140%">
      <feDropShadow dx="0" dy="2" stdDeviation="2" flood-opacity="0.12"/>
    </filter>
  </defs>

  <!-- Background chart grid (suggests measurable perf gain) -->
  <g transform="translate(28,40)" opacity="0.4">
    <line x1="0" y1="160" x2="200" y2="160" class="stroke-ink" stroke-width="2"/>
    <line x1="0" y1="120" x2="200" y2="120" class="stroke-ink" stroke-width="1"/>
    <line x1="0" y1="80" x2="200" y2="80" class="stroke-ink" stroke-width="1"/>
    <line x1="0" y1="40" x2="200" y2="40" class="stroke-ink" stroke-width="1"/>
    <line x1="0" y1="0" x2="200" y2="0" class="stroke-ink" stroke-width="1"/>
    <line x1="0" y1="0" x2="0" y2="160" class="stroke-ink" stroke-width="2"/>
  </g>

  <!-- Performance bar up top (to suggest orders-of-magnitude jump) -->
  <rect x="190" y="40" width="24" height="120" rx="4" class="fill-secure" filter="url(#s)"/>

  <!-- Rocket -->
  <g transform="translate(100,80)" filter="url(#s)">
    <!-- body -->
    <path d="M28,0 C44,20 44,60 28,80 C12,60 12,20 28,0 Z" fill="white"/>
    <path d="M28,0 C44,20 44,60 28,80 C12,60 12,20 28,0 Z" fill="none" class="stroke-ink" stroke-width="4"/>
    <!-- window -->
    <circle cx="28" cy="36" r="6" class="fill-accent"/>
    <!-- fins -->
    <polygon points="12,48 0,68 16,64" class="fill-accent"/>
    <polygon points="44,48 56,68 40,64" class="fill-accent"/>
    <!-- flame -->
    <path d="M28,80 C24,92 28,108 28,120 C32,108 32,92 28,80 Z" class="fill-boost"/>
  </g>

  <!-- Speed lines -->
  <g transform="translate(32,144)">
    <rect x="0" y="0" width="40" height="6" rx="3" class="fill-accent"/>
    <rect x="0" y="20" width="28" height="6" rx="3" class="fill-accent" opacity="0.7"/>
    <rect x="0" y="40" width="20" height="6" rx="3" class="fill-accent" opacity="0.5"/>
  </g>
</svg>